<svg width="20" height="20" viewBox="0 0 20 20" fill="none" xmlns="http://www.w3.org/2000/svg">
<path d="M12.1084 18.0645C12.1401 18.1434 12.1951 18.2107 12.2661 18.2574C12.3371 18.3041 12.4207 18.3279 12.5057 18.3258C12.5906 18.3236 12.6729 18.2955 12.7414 18.2452C12.8099 18.1949 12.8614 18.1249 12.889 18.0445L18.3035 2.21735C18.3302 2.14354 18.3353 2.06366 18.3182 1.98707C18.3011 1.91047 18.2626 1.84033 18.2071 1.78483C18.1516 1.72934 18.0814 1.6908 18.0048 1.67372C17.9282 1.65664 17.8484 1.66173 17.7746 1.68839L1.94741 7.10294C1.86702 7.13051 1.79699 7.18201 1.74672 7.25053C1.69644 7.31904 1.66833 7.4013 1.66615 7.48626C1.66398 7.57121 1.68784 7.6548 1.73454 7.7258C1.78124 7.7968 1.84855 7.85182 1.92742 7.88347L8.53317 10.5324C8.74199 10.616 8.93172 10.7411 9.09092 10.9C9.25012 11.0589 9.37549 11.2484 9.45947 11.4571L12.1084 18.0645Z" stroke="white" stroke-width="1.66602" stroke-linecap="round" stroke-linejoin="round"/>
<path d="M18.2049 1.78833L9.0918 10.9006" stroke="white" stroke-width="1.66602" stroke-linecap="round" stroke-linejoin="round"/>
</svg>
